<?xml version="1.0" encoding="utf-8"?>
<!-- Generator: Adobe Adobe Illustrator 24.2.0, SVG Export Plug-In . SVG Version: 6.00 Build 0)  -->
<svg version="1.1" id="Calque_1" xmlns="http://www.w3.org/2000/svg" xmlns:xlink="http://www.w3.org/1999/xlink" x="0px" y="0px"
	 viewBox="0 0 72 72" style="enable-background:new 0 0 72 72;" xml:space="preserve">
<style type="text/css">
	.st0{fill:#212121;}
	.st1{fill:#EEC820;}
	.st2{fill:#F0B31D;}
	.st3{fill:#FFFFFF;}
	.st4{fill:#EAEAEA;}
	.st5{fill:#21496B;}
	.st6{fill:#1E3C57;}
	.st7{fill:#2E9456;}
	.st8{fill:#308750;}
	.st9{fill:#D72C13;}
	.st10{fill:#B32106;}
	.st11{fill:#0E0A09;}
	.st12{fill:#EAB43B;}
	.st13{fill:none;stroke:#FFFFFF;stroke-width:3;stroke-miterlimit:10;}
	.st14{fill:#FFFFFF;stroke:#FFFFFF;stroke-width:3;stroke-miterlimit:10;}
	.st15{fill:none;stroke:#0E0A09;stroke-width:3;stroke-miterlimit:10;}
	.st16{fill:#FFFFFF;stroke:#0E0A09;stroke-width:3;stroke-miterlimit:10;}
	.st17{fill:url(#SVGID_1_);}
	.st18{fill:#F15A24;}
	.st19{fill:url(#SVGID_2_);}
	.st20{fill:none;stroke:#EAB43B;stroke-width:5;stroke-miterlimit:10;}
	.st21{fill:none;stroke:#EAB43B;stroke-width:3;stroke-miterlimit:10;}
	.st22{fill:#1C1C1C;}
	.st23{fill:#2B2C2B;}
	.st24{fill:#D8A736;}
	.st25{fill:#210F00;}
	.st26{fill:url(#SVGID_3_);}
	.st27{fill:url(#SVGID_4_);}
	.st28{fill:url(#SVGID_5_);}
	.st29{fill:url(#SVGID_6_);}
	.st30{fill:url(#SVGID_7_);stroke:#1C1C1C;stroke-miterlimit:10;}
	.st31{fill:#1C1C1C;stroke:#1C1C1C;stroke-miterlimit:10;}
	.st32{fill:url(#SVGID_8_);stroke:#1C1C1C;stroke-miterlimit:10;}
	.st33{fill:url(#SVGID_9_);stroke:#1C1C1C;stroke-miterlimit:10;}
	.st34{fill:#EAB43B;stroke:#1C1C1C;stroke-miterlimit:10;}
	.st35{fill:#29ABE2;}
	.st36{fill:#FFFDFE;}
	.st37{fill:#B32106;stroke:#000000;stroke-miterlimit:10;}
</style>
<g>
	<circle class="st36" cx="36" cy="36" r="36"/>
	<g>
		<path class="st22" d="M46.84,54.3c0,2.53-0.93,4.85-2.47,6.67c-0.42,0.49-0.89,0.95-1.4,1.37c-0.53,0.44-1.11,0.82-1.72,1.15
			C39.7,64.32,37.91,64.8,36,64.8c-1.9,0-3.7-0.48-5.25-1.32c0.19-0.08,0.37-0.16,0.56-0.25c1.77-0.85,3.38-2.07,4.7-3.64
			c0.17-0.2,0.34-0.41,0.5-0.63c0.2-0.26,0.38-0.53,0.56-0.81c0.35-0.54,0.66-1.1,0.92-1.67c1.14-2.44,1.52-5.15,1.08-7.86
			c-0.2-1.23-0.56-2.41-1.08-3.52c0,0,0-0.01,0-0.01c-0.03-0.08-0.07-0.16-0.11-0.23c0-0.01-0.01-0.02-0.01-0.02
			c-0.01-0.02-0.02-0.04-0.03-0.06c-0.05-0.1-0.1-0.2-0.15-0.3c-0.02-0.04-0.04-0.08-0.06-0.12c-0.02-0.04-0.04-0.08-0.06-0.12
			c-0.07-0.13-0.14-0.25-0.21-0.37c0.47,0.06,0.94,0.14,1.39,0.26c0.41,0.1,0.82,0.23,1.21,0.38c0.75,0.28,1.45,0.64,2.11,1.07
			c2.1,1.37,3.68,3.44,4.39,5.85c0.22,0.73,0.35,1.49,0.39,2.27C46.83,53.9,46.84,54.1,46.84,54.3z"/>
		<path class="st22" d="M35.74,50.82c0,1.24-0.23,2.46-0.67,3.61c-0.27,0.72-0.63,1.41-1.06,2.06v0c-0.11,0.16-0.22,0.33-0.34,0.48
			c-1.54,2.05-3.7,3.4-6.04,3.99c-0.64,0.16-1.29,0.27-1.95,0.31c-0.26,0.02-0.52,0.03-0.79,0.03c-0.44,0-0.87-0.03-1.31-0.08v0
			c-1.77-0.21-3.51-0.84-5.05-1.92c-1.54-1.08-2.69-2.48-3.44-4.05c0.97,0.2,1.95,0.3,2.94,0.3c1.22,0,2.45-0.15,3.66-0.46
			c0.26-0.07,0.52-0.14,0.79-0.22c0.32-0.1,0.63-0.21,0.94-0.33c0.61-0.24,1.2-0.52,1.76-0.83c3.59-2,6.06-5.39,6.89-9.2
			c0.1-0.46,0.18-0.92,0.23-1.39c0.35,0.32,0.68,0.65,0.98,1.01c0.27,0.31,0.51,0.64,0.74,0.98c0.43,0.65,0.79,1.34,1.06,2.07
			c0.24,0.64,0.42,1.3,0.53,1.98C35.7,49.71,35.74,50.27,35.74,50.82z"/>
		<path class="st22" d="M28.86,42.25c-0.05,0.78-0.18,1.54-0.4,2.27v0c-0.7,2.36-2.24,4.46-4.39,5.85
			c-0.65,0.42-1.35,0.78-2.11,1.06c-0.19,0.07-0.38,0.14-0.58,0.2c-2.42,0.76-4.97,0.68-7.3-0.21c-0.33-0.12-0.65-0.26-0.97-0.42
			c-0.28-0.14-0.55-0.28-0.81-0.44c-0.6-0.36-1.16-0.77-1.67-1.23c-1.33-1.2-2.34-2.72-2.91-4.44c-0.59-1.76-0.67-3.55-0.33-5.25
			c1.45,1.57,3.29,2.83,5.44,3.64c0.25,0.1,0.51,0.18,0.77,0.27c0.32,0.1,0.64,0.19,0.96,0.27c0.64,0.16,1.29,0.27,1.93,0.33
			c0.51,0.05,1.02,0.08,1.53,0.08c3.58,0,7.01-1.31,9.63-3.59c0.36-0.31,0.7-0.64,1.02-0.99c0.09,0.46,0.15,0.91,0.18,1.37
			C28.89,41.44,28.89,41.85,28.86,42.25z"/>
		<path class="st22" d="M27.86,34.79c-0.2,0.42-0.43,0.83-0.69,1.21c-0.23,0.34-0.47,0.67-0.74,0.98c-0.51,0.6-1.08,1.15-1.71,1.62
			h0l0,0c-1.99,1.51-4.51,2.33-7.1,2.23c-0.78-0.03-1.57-0.14-2.35-0.34c-0.2-0.05-0.39-0.11-0.58-0.17
			c-2.48-0.78-4.48-2.35-5.78-4.34c-0.36-0.54-0.66-1.11-0.91-1.7c-0.26-0.63-0.47-1.28-0.6-1.95c-0.34-1.69-0.26-3.49,0.33-5.25
			c0.59-1.76,1.61-3.26,2.92-4.43c0.23,2.1,0.95,4.17,2.19,6.04c0.15,0.22,0.3,0.44,0.46,0.65c0.2,0.26,0.4,0.52,0.62,0.77
			c0.42,0.49,0.88,0.95,1.36,1.37c2.68,2.35,6.14,3.59,9.64,3.59c0.51,0,1.01-0.03,1.51-0.08h0C26.91,34.96,27.39,34.89,27.86,34.79
			z"/>
		<path class="st22" d="M30.16,30.39c-0.42,0.23-0.85,0.42-1.29,0.59c-0.4,0.15-0.8,0.28-1.2,0.38c-0.78,0.2-1.57,0.31-2.36,0.33
			c-2.53,0.09-5.06-0.68-7.1-2.23c-0.62-0.47-1.19-1.01-1.7-1.61c-0.13-0.15-0.25-0.31-0.37-0.47c-1.53-2.05-2.19-4.45-2.05-6.8
			c0.04-0.64,0.14-1.28,0.3-1.9c0.17-0.66,0.4-1.3,0.69-1.92c0.75-1.57,1.91-2.97,3.45-4.06c1.51-1.07,3.25-1.72,5.05-1.93
			c-1.09,1.83-1.77,3.92-1.9,6.14c-0.02,0.26-0.02,0.53-0.02,0.79c0,0.33,0.01,0.65,0.03,0.97c0.05,0.64,0.14,1.27,0.27,1.88
			c0.85,3.93,3.41,7.25,6.9,9.19h0C29.28,29.98,29.71,30.19,30.16,30.39z"/>
		<path class="st22" d="M41.25,8.52c-1.99,0.86-3.8,2.16-5.25,3.89c-0.17,0.2-0.34,0.41-0.5,0.63c-0.2,0.26-0.38,0.53-0.56,0.81
			c-0.35,0.54-0.66,1.1-0.92,1.67c-1.14,2.44-1.52,5.15-1.08,7.86c0.2,1.23,0.56,2.41,1.08,3.52c0.19,0.43,0.41,0.84,0.65,1.24
			c-0.48-0.06-0.94-0.14-1.39-0.26c-0.41-0.1-0.81-0.23-1.2-0.38c-0.75-0.28-1.45-0.64-2.11-1.07c-2.1-1.37-3.68-3.44-4.39-5.85v0
			c-0.21-0.73-0.35-1.49-0.39-2.27c-0.01-0.2-0.02-0.39-0.02-0.59c0-2.53,0.93-4.86,2.47-6.67c0.42-0.49,0.89-0.95,1.39-1.36
			c0.54-0.44,1.12-0.83,1.73-1.16C32.31,7.68,34.1,7.2,36,7.2C37.91,7.2,39.7,7.68,41.25,8.52z"/>
		<path class="st22" d="M56.92,16.75c-0.97-0.2-1.95-0.3-2.94-0.3c-1.23,0-2.45,0.15-3.66,0.46c-0.26,0.07-0.52,0.14-0.78,0.22
			c-0.32,0.1-0.63,0.21-0.94,0.33c-0.62,0.24-1.2,0.52-1.76,0.83c-3.59,2-6.06,5.39-6.89,9.2c-0.1,0.46-0.18,0.92-0.23,1.39
			c-0.35-0.32-0.68-0.65-0.98-1.01c-0.27-0.32-0.52-0.65-0.75-0.99c-0.43-0.65-0.79-1.34-1.06-2.07c-0.24-0.63-0.42-1.29-0.53-1.98
			c-0.09-0.56-0.14-1.11-0.14-1.66c0-1.24,0.23-2.46,0.67-3.61c0.27-0.71,0.63-1.4,1.06-2.06c0.11-0.16,0.23-0.33,0.35-0.49
			c1.54-2.05,3.69-3.4,6.04-3.99c0.64-0.16,1.3-0.26,1.95-0.31c0.26-0.02,0.52-0.03,0.79-0.03c0.44,0,0.87,0.03,1.31,0.08
			c1.77,0.21,3.51,0.84,5.05,1.92C55.01,13.78,56.16,15.18,56.92,16.75z"/>
		<path class="st22" d="M64.6,32.35c-1.45-1.57-3.3-2.83-5.44-3.64c-0.25-0.09-0.51-0.18-0.77-0.27c-0.32-0.1-0.64-0.19-0.96-0.27
			c-0.64-0.16-1.29-0.27-1.93-0.33c-4.12-0.43-8.17,0.9-11.15,3.51c-0.01,0.01-0.02,0.02-0.02,0.02c-0.07,0.06-0.14,0.12-0.2,0.18
			c-0.07,0.06-0.14,0.13-0.2,0.19c-0.07,0.06-0.13,0.13-0.2,0.19c-0.13,0.13-0.26,0.26-0.39,0.4c-0.09-0.46-0.15-0.91-0.18-1.37
			c-0.01-0.21-0.02-0.42-0.02-0.62c0-0.2,0.01-0.4,0.02-0.6c0.05-0.78,0.18-1.54,0.4-2.28c0.7-2.36,2.24-4.46,4.39-5.85
			c0.65-0.42,1.35-0.78,2.11-1.06c0.19-0.07,0.38-0.14,0.58-0.2c1.1-0.35,2.23-0.52,3.36-0.52c1.34,0,2.68,0.24,3.94,0.73
			c0.33,0.12,0.65,0.26,0.97,0.42c0.28,0.14,0.55,0.28,0.81,0.44c0.6,0.36,1.16,0.77,1.67,1.23c1.33,1.2,2.34,2.72,2.91,4.44
			C64.86,28.86,64.94,30.65,64.6,32.35z"/>
		<path class="st22" d="M64.27,44.9c-0.59,1.76-1.61,3.26-2.92,4.43c-0.23-2.1-0.95-4.17-2.19-6.04h0c-0.15-0.22-0.3-0.44-0.46-0.65
			c-0.2-0.26-0.4-0.52-0.62-0.77c-0.42-0.49-0.87-0.95-1.35-1.37c-2.05-1.8-4.59-2.99-7.38-3.42c-1.27-0.19-2.54-0.22-3.79-0.1
			c-0.12,0.01-0.24,0.03-0.35,0.04c-0.05,0.01-0.1,0.01-0.16,0.02c-0.02,0-0.05,0.01-0.07,0.01c-0.1,0.01-0.19,0.03-0.29,0.04
			c-0.1,0.02-0.19,0.03-0.29,0.05c-0.08,0.01-0.15,0.03-0.23,0.04c-0.01,0-0.02,0-0.03,0.01c0.2-0.42,0.43-0.82,0.68-1.2
			c0.23-0.34,0.47-0.67,0.74-0.99c0.51-0.6,1.08-1.15,1.71-1.62c1.89-1.43,4.25-2.24,6.7-2.24c0.13,0,0.27,0,0.4,0.01
			c0.42,0.02,0.84,0.05,1.27,0.12c0.36,0.06,0.73,0.13,1.09,0.22c0.19,0.05,0.39,0.11,0.58,0.17c2.48,0.78,4.48,2.35,5.78,4.34
			c0.36,0.54,0.66,1.11,0.91,1.7c0.26,0.63,0.47,1.28,0.6,1.95C64.94,41.35,64.86,43.14,64.27,44.9z"/>
		<path class="st22" d="M57.92,51.43c-0.04,0.64-0.14,1.28-0.3,1.9c-0.17,0.66-0.4,1.3-0.69,1.92c-0.75,1.57-1.91,2.97-3.45,4.06
			c-1.54,1.08-3.28,1.72-5.05,1.92c1.09-1.82,1.76-3.91,1.89-6.13c0.02-0.26,0.02-0.53,0.02-0.79c0-0.33-0.01-0.65-0.03-0.97
			c-0.05-0.64-0.14-1.27-0.27-1.88c-0.85-3.93-3.41-7.25-6.9-9.19c-0.41-0.23-0.83-0.44-1.27-0.63c-0.01,0-0.02-0.01-0.02-0.01
			c0.42-0.23,0.85-0.42,1.29-0.59c0.39-0.15,0.79-0.28,1.2-0.38c0.77-0.2,1.55-0.31,2.35-0.34c0.13-0.01,0.26-0.01,0.39-0.01
			c0.57,0,1.15,0.04,1.72,0.13c1.86,0.28,3.57,1.01,5.01,2.12c0.62,0.47,1.19,1.01,1.69,1.61c0.13,0.15,0.25,0.31,0.37,0.47
			C57.4,46.67,58.06,49.08,57.92,51.43z"/>
	</g>
</g>
</svg>
